<?xml version="1.0" encoding="UTF-8" standalone="no"?>
<!-- Created with Inkscape (http://www.inkscape.org/) -->

<svg
   width="107.40734mm"
   height="107.40734mm"
   viewBox="0 0 107.40734 107.40734"
   version="1.1"
   id="svg5"
   xmlns:xlink="http://www.w3.org/1999/xlink"
   xmlns="http://www.w3.org/2000/svg"
   xmlns:svg="http://www.w3.org/2000/svg">
  <defs
     id="defs2">
    <linearGradient
       id="linearGradient3777">
      <stop
         style="stop-color:#4aaf37;stop-opacity:1;"
         offset="0"
         id="stop3773" />
      <stop
         style="stop-color:#4aaf37;stop-opacity:0;"
         offset="1"
         id="stop3775" />
    </linearGradient>
    <linearGradient
       id="linearGradient3730">
      <stop
         style="stop-color:#4aaf37;stop-opacity:1;"
         offset="0"
         id="stop3728" />
    </linearGradient>
    <filter
       style="color-interpolation-filters:sRGB"
       id="filter3719"
       x="-0.00025083465"
       y="-0.00025083465"
       width="1.0005018"
       height="1.0005018">
      <feGaussianBlur
         stdDeviation="0.011219989"
         id="feGaussianBlur3721" />
    </filter>
    <radialGradient
       xlink:href="#linearGradient3777"
       id="radialGradient3779"
       cx="102.78165"
       cy="58.756561"
       fx="102.78165"
       fy="58.756561"
       r="53.703671"
       gradientUnits="userSpaceOnUse" />
  </defs>
  <g
     id="layer1"
     transform="translate(-49.07798,-5.0528908)">
    <circle
       style="mix-blend-mode:hue;fill:url(#radialGradient3779);fill-opacity:1;fill-rule:nonzero;stroke-width:0.265;stroke-dasharray:none;filter:url(#filter3719)"
       id="path1728"
       cx="102.78165"
       cy="58.756557"
       r="53.676739" />
    <path
       d="m 129.14249,83.28608 q 4.69618,6.412088 11.46951,6.412088 v 3.431822 h -30.79608 v -3.431822 q 4.064,0 5.50898,-0.722489 1.53528,-0.8128 1.53528,-2.167466 0,-0.632178 -0.18062,-1.264355 -0.0903,-0.722489 -0.63218,-1.715911 -0.45155,-0.993422 -1.35466,-2.4384 -0.90311,-1.444977 -2.4384,-3.793066 l -10.29547,-15.352886 -7.766751,9.753598 q -2.799644,3.522133 -4.696177,6.050844 -1.896533,2.52871 -3.070577,4.334932 -1.083733,1.806222 -1.6256,2.980266 -0.451555,1.174045 -0.451555,1.986844 0,1.354667 1.535289,1.896533 1.535288,0.451556 5.77991,0.451556 V 93.12999 H 66.556904 v -3.431822 q 2.167466,0 3.883377,-0.451556 1.806222,-0.451555 3.522133,-1.444977 1.715911,-1.083733 3.431821,-2.799644 1.806222,-1.806222 3.883378,-4.425244 L 98.978587,57.998973 80.645435,32.9828 Q 78.387658,29.821911 75.588014,28.467245 72.78837,27.022267 68.904992,27.022267 v -3.431821 h 29.983284 v 3.431821 q -5.870221,0 -5.870221,3.522133 0,2.257777 2.528711,5.960532 l 9.843914,14.630398 8.85048,-11.198576 q 2.52871,-3.160888 3.52214,-5.147733 0.99342,-1.986844 0.99342,-3.793066 0,-2.257777 -1.53529,-3.070577 -1.44498,-0.903111 -5.23804,-0.903111 v -3.431821 h 24.83555 v 3.431821 q -2.16747,0 -3.79307,0.361245 -1.53529,0.270933 -2.98027,1.264355 -1.44497,0.993422 -3.16088,2.889955 -1.71591,1.896533 -4.15431,5.057421 l -14.35947,18.513775 z"
       style="font-size:90.3111px;font-family:'Libre Baskerville';-inkscape-font-specification:'Libre Baskerville, Normal';fill:#4aaf37;stroke:#000000;stroke-width:0.965"
       id="path694" />
  </g>
</svg>
